<svg xmlns="http://www.w3.org/2000/svg" viewBox="0 0 900 230"><defs><linearGradient id="g" x1="0" y1="0" x2="1" y2="1"><stop stop-color="#fff3a8"/><stop offset=".28" stop-color="#ffd45e"/><stop offset=".62" stop-color="#f2a928"/><stop offset="1" stop-color="#fff0a0"/></linearGradient><linearGradient id="n" x1="0" x2="1"><stop stop-color="#55efff"/><stop offset=".45" stop-color="#9275ff"/><stop offset=".72" stop-color="#ff4fd1"/><stop offset="1" stop-color="#ffd66b"/></linearGradient><radialGradient id="b"><stop stop-color="#25245d"/><stop offset="1" stop-color="#070a18"/></radialGradient></defs><rect width="900" height="230" rx="48" fill="#080b1b"/><rect x="4" y="4" width="892" height="222" rx="44" fill="none" stroke="url(#n)" stroke-opacity=".45" stroke-width="2"/><circle cx="112" cy="115" r="78" fill="url(#b)" stroke="url(#g)" stroke-width="4"/><path d="M72 154c17-20 20-37 20-59 0-29 18-49 45-49 22 0 39 14 43 34-15-6-28-5-37 2 9 5 15 15 15 27 0 19-13 34-33 37 10 7 23 10 38 8-17 13-39 17-61 9z" fill="url(#g)"/><path d="M57 138c28-9 56-10 86-3" fill="none" stroke="url(#n)" stroke-width="4" stroke-linecap="round"/><text x="210" y="120" font-family="Georgia,serif" font-size="70" font-weight="700" fill="url(#g)">RacharlaGPT</text><text x="214" y="166" font-family="Arial,sans-serif" font-size="18" font-weight="800" fill="#fff" letter-spacing="6">DIGITAL MARKET • CREATE • PERSONALIZE • SELL • SHARE</text></svg>
